<?xml version="1.0" standalone="no"?><!DOCTYPE svg PUBLIC "-//W3C//DTD SVG 1.1//EN" "http://www.w3.org/Graphics/SVG/1.1/DTD/svg11.dtd"><svg t="1594353007874" class="icon" viewBox="0 0 1024 1024" version="1.1" xmlns="http://www.w3.org/2000/svg" p-id="4846" xmlns:xlink="http://www.w3.org/1999/xlink" width="200" height="200"><defs><style type="text/css"></style></defs><path d="M980.48 860.288l-216.96-23.616a429.2544 429.2544 0 0 1-283.776 106.752C242.048 943.616 49.472 750.848 49.472 513.152S242.048 82.88 479.744 82.88s430.272 192.576 430.272 430.272a428.7552 428.7552 0 0 1-27.264 151.104z" fill="#CCCCCC" p-id="4847"></path><path d="M278.336 507.2a28.2816 28.2816 0 0 0 39.936 0l33.984-33.984 33.984 33.984a28.2816 28.2816 0 0 0 39.936 0c10.56-10.56 10.56-29.376 0-39.744l-33.984-33.984 33.984-33.984c10.56-10.56 10.56-28.032 0-39.744-10.56-10.56-29.376-10.56-39.744 0l-35.136 33.984-33.984-33.984c-10.56-10.56-29.376-10.56-39.744 0s-10.56 28.032 0 39.744l33.984 33.984-33.984 33.984c-10.944 10.56-10.944 28.032 0.768 39.744zM536.192 507.2a28.2816 28.2816 0 0 0 39.936 0l33.984-33.984 33.984 33.984a28.2816 28.2816 0 0 0 39.936 0c10.56-10.56 10.56-29.376 0-39.744l-33.984-33.984 33.984-33.984c10.56-10.56 10.56-28.032 0-39.744-10.56-10.56-29.376-10.56-39.744 0l-35.136 33.984-33.984-33.984c-10.56-10.56-29.376-10.56-39.744 0s-10.56 28.032 0 39.744l33.984 33.984-33.984 33.984c-10.944 10.56-10.944 28.032 0.768 39.744zM580.16 674.816H381.44a29.664 29.664 0 0 1-29.76-29.76 29.664 29.664 0 0 1 29.76-29.76h198.72a29.664 29.664 0 0 1 29.76 29.76 29.5488 29.5488 0 0 1-29.76 29.76z" fill="#FFFFFF" p-id="4848"></path></svg>